<?xml version="1.0" encoding="utf-8"?>
<!-- Generator: Adobe Illustrator 26.5.1, SVG Export Plug-In . SVG Version: 6.00 Build 0)  -->
<svg version="1.1" id="Layer_1" xmlns="http://www.w3.org/2000/svg" xmlns:xlink="http://www.w3.org/1999/xlink" x="0px" y="0px"
	 viewBox="0 0 24 24" style="enable-background:new 0 0 24 24;" xml:space="preserve">
<style type="text/css">
	.st0{fill:#FFFFFF;}
</style>
<g>
	<path class="st0" d="M23.3,7.3c0-0.2-0.3-1.8-1-2.5c-0.9-1-1.9-1.1-2.4-1.1h-0.1c-3.1-0.2-7.7-0.2-7.8-0.2c0,0-4.7,0-7.8,0.2H4.1
		c-0.5,0-1.5,0.1-2.4,1.1c-0.7,0.8-1,2.4-1,2.6c0,0.1-0.2,1.9-0.2,3.8v1.7c0,1.9,0.2,3.7,0.2,3.8c0,0.2,0.3,1.8,1,2.5
		c0.8,0.9,1.8,1,2.4,1.1c0.1,0,0.2,0,0.3,0c1.8,0.2,7.3,0.2,7.5,0.2l0,0c0,0,4.7,0,7.8-0.2h0.1c0.5-0.1,1.5-0.2,2.4-1.1
		c0.7-0.8,1-2.4,1-2.6c0-0.1,0.2-1.9,0.2-3.8v-1.7C23.5,9.3,23.3,7.4,23.3,7.3z M15.9,12.2l-6,3.2c-0.1,0-0.1,0.1-0.2,0.1
		c-0.1,0-0.2,0-0.2-0.1c-0.1-0.1-0.2-0.2-0.2-0.4V8.5c0-0.2,0.1-0.3,0.2-0.4S9.8,8,10,8.1l6,3.2c0.2,0.1,0.3,0.2,0.3,0.4
		S16.1,12.1,15.9,12.2z"/>
</g>
</svg>
